<svg width="90" height="105" viewBox="0 0 90 105" fill="none" xmlns="http://www.w3.org/2000/svg">
<path d="M7.285 98H6.232L4.225 91.43H5.035L6.754 97.253L8.482 91.43H9.283L7.285 98ZM10.4647 91.43H11.2567V98H10.4647V91.43ZM13.163 91.43H15.161C16.193 91.43 16.892 91.754 17.258 92.402C17.438 92.714 17.561 93.053 17.627 93.419C17.699 93.785 17.735 94.193 17.735 94.643C17.735 95.087 17.714 95.462 17.672 95.768C17.636 96.074 17.561 96.374 17.447 96.668C17.333 96.956 17.183 97.193 16.997 97.379C16.571 97.793 15.959 98 15.161 98H13.163V91.43ZM15.125 92.06H13.955V97.37H15.125C15.713 97.37 16.151 97.202 16.439 96.866C16.775 96.458 16.943 95.741 16.943 94.715C16.943 93.689 16.775 92.972 16.439 92.564C16.151 92.228 15.713 92.06 15.125 92.06ZM19.4472 91.43H22.9392V92.06H20.2392V94.346H22.7502V94.976H20.2392V97.37H23.1192V98H19.4472V91.43ZM28.8483 97.127C28.6623 97.451 28.3953 97.7 28.0473 97.874C27.6993 98.042 27.2703 98.126 26.7603 98.126C26.2563 98.126 25.8303 98.042 25.4823 97.874C25.1403 97.706 24.8763 97.46 24.6903 97.136C24.5103 96.806 24.3813 96.449 24.3033 96.065C24.2313 95.681 24.1953 95.261 24.1953 94.805C24.1953 94.343 24.2163 93.953 24.2583 93.635C24.3003 93.311 24.3783 92.999 24.4923 92.699C24.6123 92.399 24.7653 92.15 24.9513 91.952C25.3653 91.52 25.9713 91.304 26.7693 91.304C27.7773 91.304 28.4703 91.64 28.8483 92.312C29.0343 92.636 29.1633 92.99 29.2353 93.374C29.3133 93.758 29.3523 94.208 29.3523 94.724C29.3523 95.234 29.3133 95.681 29.2353 96.065C29.1633 96.449 29.0343 96.803 28.8483 97.127ZM26.8233 97.478C27.1353 97.478 27.4113 97.409 27.6513 97.271C27.8973 97.127 28.0833 96.926 28.2093 96.668C28.3353 96.404 28.4253 96.116 28.4793 95.804C28.5333 95.486 28.5603 95.123 28.5603 94.715C28.5603 94.307 28.5333 93.947 28.4793 93.635C28.4253 93.317 28.3353 93.026 28.2093 92.762C27.9453 92.222 27.4653 91.952 26.7693 91.952C26.2113 91.952 25.7913 92.129 25.5093 92.483C25.1613 92.921 24.9873 93.665 24.9873 94.715C24.9873 95.765 25.1613 96.509 25.5093 96.947C25.7913 97.301 26.2293 97.478 26.8233 97.478ZM35.515 95.561H34.372V98H33.58V91.43H35.515C36.871 91.43 37.549 92.12 37.549 93.5C37.549 94.874 36.871 95.561 35.515 95.561ZM34.372 94.931H35.47C36.328 94.931 36.757 94.454 36.757 93.5C36.757 92.54 36.328 92.06 35.47 92.06H34.372V94.931ZM38.8798 91.43H40.8688C41.2588 91.43 41.5918 91.487 41.8678 91.601C42.1498 91.715 42.3598 91.871 42.4978 92.069C42.7558 92.441 42.8848 92.873 42.8848 93.365C42.8848 94.307 42.5068 94.907 41.7508 95.165C41.9128 95.285 42.0568 95.483 42.1828 95.759L43.1548 98H42.3088L41.3998 95.867C41.3038 95.651 41.1838 95.504 41.0398 95.426C40.8958 95.348 40.6948 95.303 40.4368 95.291H39.6718V98H38.8798V91.43ZM39.6718 94.661H40.8328C41.2708 94.661 41.5888 94.538 41.7868 94.292C41.9908 94.04 42.0928 93.731 42.0928 93.365C42.0928 92.993 41.9908 92.684 41.7868 92.438C41.5888 92.186 41.2708 92.06 40.8328 92.06H39.6718V94.661ZM49.0016 97.127C48.8156 97.451 48.5486 97.7 48.2006 97.874C47.8526 98.042 47.4236 98.126 46.9136 98.126C46.4096 98.126 45.9836 98.042 45.6356 97.874C45.2936 97.706 45.0296 97.46 44.8436 97.136C44.6636 96.806 44.5346 96.449 44.4566 96.065C44.3846 95.681 44.3486 95.261 44.3486 94.805C44.3486 94.343 44.3696 93.953 44.4116 93.635C44.4536 93.311 44.5316 92.999 44.6456 92.699C44.7656 92.399 44.9186 92.15 45.1046 91.952C45.5186 91.52 46.1246 91.304 46.9226 91.304C47.9306 91.304 48.6236 91.64 49.0016 92.312C49.1876 92.636 49.3166 92.99 49.3886 93.374C49.4666 93.758 49.5056 94.208 49.5056 94.724C49.5056 95.234 49.4666 95.681 49.3886 96.065C49.3166 96.449 49.1876 96.803 49.0016 97.127ZM46.9766 97.478C47.2886 97.478 47.5646 97.409 47.8046 97.271C48.0506 97.127 48.2366 96.926 48.3626 96.668C48.4886 96.404 48.5786 96.116 48.6326 95.804C48.6866 95.486 48.7136 95.123 48.7136 94.715C48.7136 94.307 48.6866 93.947 48.6326 93.635C48.5786 93.317 48.4886 93.026 48.3626 92.762C48.0986 92.222 47.6186 91.952 46.9226 91.952C46.3646 91.952 45.9446 92.129 45.6626 92.483C45.3146 92.921 45.1406 93.665 45.1406 94.715C45.1406 95.765 45.3146 96.509 45.6626 96.947C45.9446 97.301 46.3826 97.478 46.9766 97.478ZM51.1229 91.43H53.1209C54.1529 91.43 54.8519 91.754 55.2179 92.402C55.3979 92.714 55.5209 93.053 55.5869 93.419C55.6589 93.785 55.6949 94.193 55.6949 94.643C55.6949 95.087 55.6739 95.462 55.6319 95.768C55.5959 96.074 55.5209 96.374 55.4069 96.668C55.2929 96.956 55.1429 97.193 54.9569 97.379C54.5309 97.793 53.9189 98 53.1209 98H51.1229V91.43ZM53.0849 92.06H51.9149V97.37H53.0849C53.6729 97.37 54.1109 97.202 54.3989 96.866C54.7349 96.458 54.9029 95.741 54.9029 94.715C54.9029 93.689 54.7349 92.972 54.3989 92.564C54.1109 92.228 53.6729 92.06 53.0849 92.06ZM61.1151 91.43H61.9071V95.831C61.9071 96.233 61.8591 96.578 61.7631 96.866C61.6671 97.154 61.5471 97.379 61.4031 97.541C61.2651 97.697 61.0851 97.823 60.8631 97.919C60.6411 98.009 60.4341 98.066 60.2421 98.09C60.0561 98.114 59.8371 98.126 59.5851 98.126C59.3331 98.126 59.1111 98.114 58.9191 98.09C58.7331 98.066 58.5291 98.009 58.3071 97.919C58.0911 97.823 57.9111 97.697 57.7671 97.541C57.6291 97.379 57.5121 97.154 57.4161 96.866C57.3201 96.578 57.2721 96.233 57.2721 95.831V91.43H58.0641V95.804C58.0641 96.5 58.2291 96.962 58.5591 97.19C58.7211 97.298 58.8801 97.37 59.0361 97.406C59.1921 97.442 59.3751 97.46 59.5851 97.46C59.8011 97.46 59.9871 97.442 60.1431 97.406C60.2991 97.37 60.4581 97.298 60.6201 97.19C60.9501 96.968 61.1151 96.506 61.1151 95.804V91.43ZM65.9235 91.952C65.3655 91.952 64.9485 92.108 64.6725 92.42C64.4265 92.69 64.2765 93.134 64.2225 93.752C64.1985 94.01 64.1865 94.328 64.1865 94.706C64.1865 95.084 64.1985 95.408 64.2225 95.678C64.2465 95.942 64.2945 96.194 64.3665 96.434C64.4445 96.674 64.5465 96.866 64.6725 97.01C64.9485 97.322 65.3655 97.478 65.9235 97.478C66.8475 97.478 67.3245 96.986 67.3545 96.002L68.0025 96.038C67.9605 96.704 67.7775 97.22 67.4535 97.586C67.1355 97.946 66.6255 98.126 65.9235 98.126C64.9335 98.126 64.2585 97.82 63.8985 97.208C63.7125 96.902 63.5805 96.551 63.5025 96.155C63.4305 95.759 63.3945 95.279 63.3945 94.715C63.3945 94.145 63.4305 93.662 63.5025 93.266C63.5805 92.87 63.7125 92.519 63.8985 92.213C64.2585 91.607 64.9335 91.304 65.9235 91.304C66.5775 91.304 67.0635 91.454 67.3815 91.754C67.6995 92.048 67.8945 92.471 67.9665 93.023L67.3275 93.14C67.2015 92.348 66.7335 91.952 65.9235 91.952ZM68.5308 92.06V91.43H72.8508V92.06H71.0868V98H70.2948V92.06H68.5308ZM73.869 91.43H74.661V98H73.869V91.43ZM80.9323 97.127C80.7463 97.451 80.4793 97.7 80.1313 97.874C79.7833 98.042 79.3543 98.126 78.8443 98.126C78.3403 98.126 77.9143 98.042 77.5663 97.874C77.2243 97.706 76.9603 97.46 76.7743 97.136C76.5943 96.806 76.4653 96.449 76.3873 96.065C76.3153 95.681 76.2793 95.261 76.2793 94.805C76.2793 94.343 76.3003 93.953 76.3423 93.635C76.3843 93.311 76.4623 92.999 76.5763 92.699C76.6963 92.399 76.8493 92.15 77.0353 91.952C77.4493 91.52 78.0553 91.304 78.8533 91.304C79.8613 91.304 80.5543 91.64 80.9323 92.312C81.1183 92.636 81.2473 92.99 81.3193 93.374C81.3973 93.758 81.4363 94.208 81.4363 94.724C81.4363 95.234 81.3973 95.681 81.3193 96.065C81.2473 96.449 81.1183 96.803 80.9323 97.127ZM78.9073 97.478C79.2193 97.478 79.4953 97.409 79.7353 97.271C79.9813 97.127 80.1673 96.926 80.2933 96.668C80.4193 96.404 80.5093 96.116 80.5633 95.804C80.6173 95.486 80.6443 95.123 80.6443 94.715C80.6443 94.307 80.6173 93.947 80.5633 93.635C80.5093 93.317 80.4193 93.026 80.2933 92.762C80.0293 92.222 79.5493 91.952 78.8533 91.952C78.2953 91.952 77.8753 92.129 77.5933 92.483C77.2453 92.921 77.0713 93.665 77.0713 94.715C77.0713 95.765 77.2453 96.509 77.5933 96.947C77.8753 97.301 78.3133 97.478 78.9073 97.478ZM87.0496 91.43H87.8416V98H86.9776L83.8456 92.762V98H83.0536V91.43H83.9176L87.0496 96.677V91.43Z" fill="black"/>
<path d="M55.9531 81.6406H89.3281V89H47.2812V20.75H55.9531V81.6406Z" fill="black"/>
<path d="M40.7344 71.3281H17.9531L12.4688 89H3.79688L25.8281 20.75H33.0938L54.75 89H46.125L40.7344 71.3281ZM20.2969 63.7812H38.4375L29.4375 34.1562L20.2969 63.7812Z" fill="black"/>
</svg>
